<?xml version="1.0" encoding="UTF-8"?>
<svg xmlns="http://www.w3.org/2000/svg" xmlns:xlink="http://www.w3.org/1999/xlink" viewBox="0 0 480 480" width="480px" height="480px">
<g id="surface4520738">
<path style=" stroke:none;fill-rule:nonzero;fill:rgb(94.509804%,76.862746%,5.882353%);fill-opacity:1;" d="M 160.039062 149.488281 C 160.039062 193.671875 124.222656 229.488281 80.039062 229.488281 C 35.855469 229.488281 0.0390625 193.671875 0.0390625 149.488281 C 0.0390625 105.308594 35.855469 69.488281 80.039062 69.488281 C 124.222656 69.488281 160.039062 105.308594 160.039062 149.488281 Z M 160.039062 149.488281 "/>
<path style=" stroke:none;fill-rule:nonzero;fill:rgb(94.509804%,76.862746%,5.882353%);fill-opacity:1;" d="M 360 150 C 360 205.226562 306.273438 250 240 250 C 173.726562 250 120 205.226562 120 150 C 120 94.769531 173.726562 50 240 50 C 306.273438 50 360 94.769531 360 150 Z M 360 150 "/>
<path style=" stroke:none;fill-rule:nonzero;fill:rgb(94.509804%,76.862746%,5.882353%);fill-opacity:1;" d="M 240 410 C 201.339844 410 170 384.039062 170 315 C 170 245.960938 201.339844 160 240 160 C 278.660156 160 310 245.960938 310 315 C 310 384.039062 278.660156 410 240 410 Z M 240 410 "/>
<path style=" stroke:none;fill-rule:nonzero;fill:rgb(94.509804%,76.862746%,5.882353%);fill-opacity:1;" d="M 480 150 C 480 194.183594 444.183594 230 400 230 C 355.816406 230 320 194.183594 320 150 C 320 105.816406 355.816406 70 400 70 C 444.183594 70 480 105.816406 480 150 Z M 480 150 "/>
<path style=" stroke:none;fill-rule:nonzero;fill:rgb(94.509804%,76.862746%,5.882353%);fill-opacity:1;" d="M 230 430 L 130 430 C 130 402.390625 152.390625 380 180 380 C 207.609375 380 230 402.390625 230 430 Z M 230 430 "/>
<path style=" stroke:none;fill-rule:nonzero;fill:rgb(94.509804%,76.862746%,5.882353%);fill-opacity:1;" d="M 350 430 L 250 430 C 250 402.390625 272.390625 380 300 380 C 327.609375 380 350 402.390625 350 430 Z M 350 430 "/>
<path style=" stroke:none;fill-rule:nonzero;fill:rgb(94.509804%,76.862746%,5.882353%);fill-opacity:1;" d="M 150 325 L 120 325 C 120 283.640625 153.640625 250 195 250 L 195 280 C 170.191406 280 150 300.191406 150 325 Z M 150 325 "/>
<path style=" stroke:none;fill-rule:nonzero;fill:rgb(94.509804%,76.862746%,5.882353%);fill-opacity:1;" d="M 360 325 L 330 325 C 330 300.191406 309.808594 280 285 280 L 285 250 C 326.359375 250 360 283.640625 360 325 Z M 360 325 "/>
<path style=" stroke:none;fill-rule:nonzero;fill:rgb(20%,20%,20%);fill-opacity:1;" d="M 320 150 C 320 188.660156 284.183594 220 240 220 C 195.816406 220 160 188.660156 160 150 C 160 111.339844 195.816406 80 240 80 C 284.183594 80 320 111.339844 320 150 Z M 320 150 "/>
<path style=" stroke:none;fill-rule:nonzero;fill:rgb(94.509804%,76.862746%,5.882353%);fill-opacity:1;" d="M 210 145 C 210 153.285156 203.285156 160 195 160 C 186.714844 160 180 153.285156 180 145 C 180 136.714844 186.714844 130 195 130 C 203.285156 130 210 136.714844 210 145 Z M 210 145 "/>
<path style=" stroke:none;fill-rule:nonzero;fill:rgb(94.509804%,76.862746%,5.882353%);fill-opacity:1;" d="M 300 145 C 300 153.285156 293.285156 160 285 160 C 276.714844 160 270 153.285156 270 145 C 270 136.714844 276.714844 130 285 130 C 293.285156 130 300 136.714844 300 145 Z M 300 145 "/>
<path style=" stroke:none;fill-rule:nonzero;fill:rgb(94.509804%,76.862746%,5.882353%);fill-opacity:1;" d="M 250 160 L 230 160 L 240 140 Z M 250 160 "/>
<path style=" stroke:none;fill-rule:nonzero;fill:rgb(94.509804%,76.862746%,5.882353%);fill-opacity:1;" d="M 260 180 C 260 191.050781 251.050781 200 240 200 C 228.949219 200 220 191.050781 220 180 Z M 260 180 "/>
<path style=" stroke:none;fill-rule:nonzero;fill:rgb(90.196079%,49.411765%,13.333334%);fill-opacity:1;" d="M 120 150 C 120 169.859375 127.03125 188.320312 139.011719 203.878906 C 152.011719 189.660156 160 170.78125 160 150 C 160 129.21875 152.011719 110.339844 139.011719 96.121094 C 127.03125 111.679688 120 130.140625 120 150 Z M 120 150 "/>
<path style=" stroke:none;fill-rule:nonzero;fill:rgb(90.196079%,49.411765%,13.333334%);fill-opacity:1;" d="M 320 150 C 320 170.78125 327.988281 189.660156 340.988281 203.878906 C 352.96875 188.320312 360 169.859375 360 150 C 360 130.140625 352.96875 111.679688 340.988281 96.121094 C 327.988281 110.339844 320 129.21875 320 150 Z M 320 150 "/>
<path style=" stroke:none;fill-rule:nonzero;fill:rgb(90.196079%,49.411765%,13.333334%);fill-opacity:1;" d="M 302.371094 252.109375 C 296.78125 250.78125 290.988281 250 285 250 L 285 280 C 293.578125 280 301.519531 282.539062 308.351562 286.71875 C 307.058594 275.109375 305.019531 263.449219 302.371094 252.109375 Z M 302.371094 252.109375 "/>
<path style=" stroke:none;fill-rule:nonzero;fill:rgb(90.196079%,49.411765%,13.333334%);fill-opacity:1;" d="M 195 280 L 195 250 C 189.011719 250 183.21875 250.78125 177.628906 252.109375 C 174.96875 263.449219 172.929688 275.109375 171.648438 286.71875 C 178.480469 282.539062 186.421875 280 195 280 Z M 195 280 "/>
</g>
</svg>
